<?xml version="1.0" encoding="utf-8"?>
<!-- Generator: Adobe Illustrator 19.0.0, SVG Export Plug-In . SVG Version: 6.00 Build 0)  -->
<svg version="1.1" id="Layer_1" xmlns="http://www.w3.org/2000/svg" xmlns:xlink="http://www.w3.org/1999/xlink" x="0px" y="0px"
	 viewBox="0 0 310 410" style="enable-background:new 0 0 310 410;" xml:space="preserve">
<style type="text/css">
	.st0{fill:#FFFFFF;stroke:#FFFFFF;stroke-miterlimit:10;}
	.st1{fill:#FFFFFF;stroke:#FFFFFF;stroke-width:2;stroke-miterlimit:10;}
</style>
<g id="XMLID_28_">
	<path id="XMLID_150_" class="st0" d="M308.3,242.5c-2-5.9-7.1-21.8-6.6-28.6l-1.4-30.6c0,0,0.7-13.7-13.4-37.4
		c0,0,17.2-95.7-10.2-133.7c0,0-10.1-15.5-24.7,1c-12.9,14.6-37.3,38.9-37.3,38.9c-72.2-16.4-120.3,0-120.3,0
		c-3.4-1-22.7-25.2-37.5-39.9c-14.9-14.7-24.7,0-24.7,0c-27.4,38-10.2,133.7-10.2,133.7C8,169.6,8.7,183.3,8.7,183.3l-1.3,30.2
		c0,0.3,0,0.5,0,0.8c0.3,7.1-4.7,22.4-6.7,28.3c-0.6,1.8-0.3,3.8,0.9,5.3c7.1,8.6,23.5-4.7,23.5-4.7c-9.7,44.5,4.4,66.8,7.9,73.8
		c0.6,1.2,1.6,2.3,2.8,2.8c2.7,1.3,4.6-0.4,5.7-1.8c0.6-0.8,1-1.8,1.1-2.8c0.7-5.6,3.4-11.1,3.4-11.1c1.9,27.4,19.6,43.6,19.6,43.6
		s12.2,10.8,44.4,21.3c27.4,8.9,37.5,21.3,40,24.8c0.5,0.7,1,1.2,1.7,1.6l0.2,0.1c1.6,0.9,3.5,0.9,5.1,0l0.3-0.2
		c0.7-0.4,1.3-0.9,1.7-1.6c2.4-3.5,12.5-15.9,40-24.8c32.3-10.5,44.4-21.3,44.4-21.3s17.7-16.2,19.6-43.6c0,0,2.5,5.2,3.3,10.7
		c0.2,1.5,0.9,2.9,1.9,4c1.1,1.1,2.8,1.9,4.9,0.9c1.2-0.6,2.2-1.6,2.8-2.8c3.5-7,17.6-29.3,7.9-73.8c0,0,16.4,13.3,23.6,4.7
		C308.6,246.3,308.9,244.3,308.3,242.5z M275.5,215.2c-0.2-0.5-0.7-1-1.2-1.2l-0.1,0c-2-0.8-4.3,0-5.5,1.7l0,0.1
		c-0.7,1.1-0.9,2.4-0.4,3.6c3.3,8.8,15.9,37.5,3.9,81.1c0,0-4.4-10.3-12.8-11.8c0,0-5.1-0.7-5.3,4.7c0,0,0.9,28.4-14.4,44.1
		c0,0-11.6,13.2-44.2,22.1c0,0-29,8.4-40.7,24.6c-11.7-16.2-41-24.2-41-24.2c-32.5-9-44.2-22.1-44.2-22.1
		c-15.3-15.7-14.4-44.1-14.4-44.1c-0.2-5.3-5.3-4.7-5.3-4.7c-8.3,1.5-12.7,11.8-12.7,11.8c-12-43.6,0.6-72.3,3.9-81.1
		c0.4-1.2,0.3-2.6-0.4-3.6l0-0.1c-1.2-1.8-3.5-2.5-5.5-1.7l0,0c-0.6,0.2-1,0.6-1.3,1.2c-7.2,16.5-21.3,24.5-21.7,24.8
		c3.3-7.5,5.3-28.4,5.3-28.4c1-9.4,1-26.2,1-26.2c0.6-20.4,14.8-38.9,14.8-38.9c20.2-22.5,57.5-45.1,64.1-49c0.7-0.4,3.2-2,3.4-2.7
		l0.3-0.8c0.1-0.4,0.2-0.8,0.2-1.2c0-1.4-0.9-2.8-2.4-3.2c-0.9-0.3-1.8-0.2-2.6,0.3l-9.9,5.4C83.5,71.3,49.6,54.6,43,51.5
		c-0.7-0.3-1.5-0.4-2.3-0.2l-0.4,0.1c-1.4,0.4-2.3,1.7-2.3,3.1c0,0.3,0,0.6,0.1,0.8c0.3,1,1.1,1.8,2,2.2c41.3,18.1,40,41.6,40,41.6
		c-21.5,13.2-50.1,36.8-50.1,36.8S16.8,41,40.4,17.3c0,0,4.2-3.8,7.7,0c3.2,3.5,49.6,54.2,58.1,63.5c0.9,1,2.1,1.5,3.4,1.4l0.4,0
		c1,0,1.9-0.4,2.6-1c0.7-0.6,1.2-1.4,1.4-2.4c0.3-1.3-0.1-2.6-0.9-3.6l-12.6-15.5c0,0,48.8-13.7,107.9-0.4l-12.6,15.5
		c-0.6,0.8-1,1.7-1,2.7c0,0.3,0,0.6,0.1,0.9c0.4,1.9,2.1,3.3,4,3.4l0.4,0c1.3,0.1,2.5-0.5,3.4-1.4c8.5-9.3,54.9-60,58.1-63.5
		c3.5-3.8,7.7,0,7.7,0c23.7,23.6,10.3,118.6,10.3,118.6s-28.7-23.6-50.1-36.8c0,0-1.3-23.5,40-41.6c1-0.4,1.8-1.2,2-2.2
		c0.5-1.7-0.5-3.4-2.2-3.9l-0.4-0.1c-0.8-0.2-1.6-0.2-2.3,0.2c-6.5,3.1-40.4,19.8-43.2,44.2l-9.9-5.4c-0.5-0.3-1.1-0.4-1.6-0.4
		c-0.3,0-0.6,0-0.9,0.1c-1.9,0.6-2.9,2.6-2.2,4.4l0.3,0.8c0.3,0.7,2.8,2.3,3.4,2.7c6.6,3.9,43.9,26.5,64.1,49
		c0,0,14.2,18.5,14.8,38.9c0,0,0,16.7,1,26.2c0,0,1.9,20.9,5.3,28.4C296.8,239.7,282.6,231.7,275.5,215.2z"/>
	<g id="XMLID_1_">
		<path id="XMLID_24_" class="st0" d="M172.7,226.4L172.7,226.4c0.7,0.2,1.1,0.8,1.1,1.4l0,0c0,0.5-0.2,0.9-0.6,1.2
			c-2.9,2-15.1,11.4-16.2,24.9c0,0.3-0.1,0.6-0.4,0.8l-0.1,0.1c-0.5,0.5-1.2,0.6-1.8,0.2v0c-0.4-0.3-0.6-0.7-0.6-1.2
			c0.1-2.9-0.9-13.8-16.1-24.8c-0.4-0.3-0.6-0.7-0.6-1.2l0,0c0-0.8,0.6-1.4,1.3-1.5l0.5-0.1c0.4-0.1,0.8,0.1,1.2,0.3
			c2.5,2.1,13.4,11.5,15.2,20c0,0,4.5-12,16-20C171.8,226.3,172.3,226.3,172.7,226.4z"/>
		<g id="XMLID_21_">
			<path id="XMLID_23_" class="st0" d="M172.7,236.4L172.7,236.4c0.7,0.2,1.1,0.8,1.1,1.4l0,0c0,0.5-0.2,0.9-0.6,1.2
				c-2.9,2-15.1,11.4-16.2,24.9c0,0.3-0.1,0.6-0.4,0.8l-0.1,0.1c-0.5,0.5-1.2,0.6-1.8,0.2l0,0c-0.4-0.3-0.6-0.7-0.6-1.2
				c0.1-2.9-0.9-13.8-16.1-24.8c-0.4-0.3-0.6-0.7-0.6-1.2l0,0c0-0.8,0.6-1.4,1.3-1.5l0.5-0.1c0.4-0.1,0.8,0.1,1.2,0.3
				c2.5,2.1,13.4,11.5,15.2,20c0,0,4.5-12,16-20C171.8,236.3,172.3,236.3,172.7,236.4z"/>
			<path id="XMLID_22_" class="st0" d="M172.7,216.4L172.7,216.4c0.7,0.2,1.1,0.8,1.1,1.4l0,0c0,0.5-0.2,0.9-0.6,1.2
				c-2.9,2-15.1,11.4-16.2,24.9c0,0.3-0.1,0.6-0.4,0.8l-0.1,0.1c-0.5,0.5-1.2,0.6-1.8,0.2v0c-0.4-0.3-0.6-0.7-0.6-1.2
				c0.1-2.9-0.9-13.8-16.1-24.8c-0.4-0.3-0.6-0.7-0.6-1.2l0,0c0-0.8,0.6-1.4,1.3-1.5l0.5-0.1c0.4-0.1,0.8,0.1,1.2,0.3
				c2.5,2.1,13.4,11.5,15.2,20c0,0,4.5-12,16-20C171.8,216.3,172.3,216.3,172.7,216.4z"/>
		</g>
	</g>
	<path id="XMLID_141_" class="st0" d="M170.8,149.9c0,8.4-6.8,15.2-15.2,15.2c-8.4,0-15.2-6.8-15.2-15.2c0-1.5,0.2-3,0.6-4.4
		c1.9,6.3,7.7,10.8,14.6,10.8c6.9,0,12.7-4.6,14.6-10.8C170.6,146.9,170.8,148.4,170.8,149.9z"/>
	<g id="XMLID_5_">
		<path id="XMLID_6_" class="st0" d="M244.7,164.6L244.7,164.6c-0.5-0.5-1.2-0.8-1.9-0.8l0,0c-1.8-0.1-2.6,1.3-2.2,3.1
			c2.9,13.8,13.5,75.9,5.2,84.5c-9.4,9.7-15.3,11.2-15.3,11.2l-0.3-6.6c0-1-0.4-1.9-1.2-2.6c-0.6-0.5-1.3-0.8-2.1-0.8
			c-0.6,0-1.1,0.2-1.6,0.5l-0.8,0.5c-0.9,0.5-1.5,1.4-1.6,2.5l-1,9.8c0,0-0.7,15-5.4,19.3c-4.7,4.2-6.4,6-6.4,6l-0.8-4.5
			c-0.2-1.2-1.2-2.2-2.4-2.6c-0.3-0.1-0.5-0.1-0.8-0.1c-0.8,0-1.6,0.3-2.2,0.9l-0.8,0.7c-0.5,0.5-0.9,1.2-1,1.9
			c-0.7,4.7-4.6,23.3-23.1,34.2l-20.2-5.7v-11c0,0,10.9,1.3,11.4,5c0,0,5.2-1.3,10.1-7.7c0.7-0.9,1.2-2.1,1.3-3.3
			c0.4-4.2-0.4-13.9-16.4-17.8c-6.6-1.6-13.6-1.6-20.2,0.1c-12.7,3.2-16,10-16.6,14.7c-0.4,2.8,0.5,5.7,2.4,7.8
			c4.5,5.1,8.9,6.2,8.9,6.2c0.5-3.7,11.4-5,11.4-5v11l-20.2,5.7c-18.4-10.8-22.3-29.4-23.1-34.2c-0.1-0.7-0.5-1.4-1-1.9l-0.8-0.7
			c-0.8-0.8-2-1.1-3-0.8c-1.2,0.3-2.1,1.3-2.4,2.6l-0.9,4.5c0,0-1.7-1.8-6.4-6c-4.7-4.3-5.4-19.3-5.4-19.3l-0.7-10
			c-0.1-1-0.7-1.9-1.5-2.4l-1-0.6c-1-0.6-2.3-0.6-3.2,0.1c-1,0.7-1.6,1.9-1.6,3.1l-0.6,6.5c0,0-6.8-1.8-16.1-10.7
			c-7.4-7,6.5-76.8,9.3-90c0.2-0.8-0.2-2.1-0.9-2.2c-1.7-0.4-3.4,0.4-4.4,1.7c-0.1,0.1-0.2,0.2-0.2,0.4l0,0c-1,1.8-4.5,16.2-5,18.2
			c-2.8,13.4-13.4,66.2-6.1,73.9c0,0,6.2,7.4,11.8,10.4c4,2.2,6.9,4.5,13,6.9c0,0,2.1,10.3,4.8,14c2.3,3.2,14.9,15,18.5,18.2
			c0.6,0.5,1.1,1.1,1.4,1.9c1.6,3.3,7.7,13.8,22.2,22.5c0,0,8.8,11.3,27,11.8c16.2-0.4,25.5-9.5,27.3-11.4c0.2-0.2,0.5-0.4,0.8-0.6
			c13.8-8.4,19.8-18.3,21.6-21.9c0.5-1,1.2-1.8,2-2.6c4.1-3.6,16.7-14.7,18.9-17.8c2.7-3.7,4.2-13.5,4.2-13.5
			c4.8-1.3,13.7-7.7,13.7-7.7c5.6-3.3,10.3-10.6,10.3-10.6c7.2-7.5-3.3-67.3-6-81.9C246.8,168.9,246.5,166.5,244.7,164.6z
			 M138.9,301.2c-6.1-6.2,0-10.1,0-10.1s3.6-3.7,15.6-3.7c12,0,16.7,3.7,16.7,3.7s6.2,3.9,0,10.1c0,0-3.9-3.3-8.6-3.3
			c-2.4,0-5,0.8-7.4,3.3C147.8,293.8,138.9,301.2,138.9,301.2z M138.9,326.6l16.2-5.4l16,5.4C171.1,326.6,155.6,340.4,138.9,326.6z"
			/>
	</g>
	<g id="XMLID_130_">
		<path id="XMLID_29_" class="st0" d="M206.6,139.5l-24.8-0.1V51.8l-52.6,1v86.7h-26.7c-2,0-3,2.4-1.6,3.8l52.5,61.6
			c0.9,0.9,2.3,0.9,3.2,0l51.6-61.5C209.7,142,208.6,139.5,206.6,139.5z M155,197.5l-43.9-52.8h21.3c1.6,0,2.8-1.3,2.8-2.8V52.8
			h40.6l0,89.5c0,1.3,1.1,2.4,2.4,2.4l18.9,0.1L155,197.5z"/>
	</g>
	<circle id="XMLID_129_" class="st1" cx="155.5" cy="135.4" r="2.6"/>
	<g id="XMLID_124_">
		<circle id="XMLID_33_" class="st0" cx="275.6" cy="170.2" r="3.8"/>
		<circle id="XMLID_127_" class="st0" cx="257.6" cy="151.2" r="3.8"/>
		<circle id="XMLID_126_" class="st0" cx="234.6" cy="137.2" r="3.8"/>
		<circle id="XMLID_125_" class="st0" cx="208.6" cy="129.2" r="3.8"/>
	</g>
	<g id="XMLID_119_">
		<circle id="XMLID_34_" class="st0" cx="34.6" cy="170.2" r="3.8"/>
		<circle id="XMLID_122_" class="st0" cx="52.6" cy="151.2" r="3.8"/>
		<circle id="XMLID_121_" class="st0" cx="75.6" cy="137.2" r="3.8"/>
		<circle id="XMLID_120_" class="st0" cx="101.6" cy="129.2" r="3.8"/>
	</g>
</g>
<path id="XMLID_17_" class="st0" d="M118.7,189.6c-1.4-9.8-11.3-15.5-16.5-16.6c-5.3-1.2-10.4,0-13.2,0.8c-0.7,0.2-1.3,0.5-1.9,0.8
	l-0.1,0.1c-1.1,0.6-1.6,1.8-1.6,3v0.2c0,0.7,0.1,1.4,0.5,2c0.4,0.6,0.9,1,1.6,1.3c1.1,0.4,2.2,0.3,3.2-0.3l0.6-0.4
	c3.8,15.6,18.1,16.4,18.1,16.4c-3.1,0.8-5,1-6.2,0.9c-0.1,0-0.1,0-0.2,0c-1,0-1.9,0.4-2.5,1.2c-1,1.2-0.9,3,0.2,4.1l0.3,0.3
	c0.5,0.5,1,0.8,1.7,0.9c2,0.3,7.7,0.5,12-2.6C120.5,197.5,118.7,189.6,118.7,189.6z M98.4,178.5c10.5,0,14.1,12.4,14.1,12.4
	C101.3,190.8,98.4,178.5,98.4,178.5z"/>
<path id="XMLID_7_" class="st0" d="M196.7,201.6c4.3,3.2,10,2.9,12,2.6c0.7-0.1,1.2-0.4,1.7-0.9l0.3-0.3c1.1-1.1,1.2-2.9,0.2-4.1
	c-0.6-0.8-1.5-1.2-2.5-1.2c-0.1,0-0.1,0-0.2,0c-1.2,0.1-3.1-0.1-6.2-0.9c0,0,14.3-0.9,18.1-16.4l0.6,0.4c0.9,0.6,2.1,0.7,3.2,0.3
	c0.7-0.3,1-0.7,1.4-1.3c0.4-0.6,0.3-1.3,0.3-2v-0.2c0-1.2-0.3-2.4-1.3-3l0-0.1c-0.6-0.4-1.1-0.6-1.8-0.8c-2.8-0.8-7.8-2-13.2-0.8
	c-5.1,1.1-15.1,6.8-16.5,16.6C192.7,189.6,191,197.5,196.7,201.6z M199,190.8c0,0,3.5-12.4,14.1-12.4
	C213.1,178.5,210.2,190.8,199,190.8z"/>
</svg>
