<?xml version="1.0" encoding="utf-8"?>
<!-- Generator: Adobe Illustrator 19.0.0, SVG Export Plug-In . SVG Version: 6.00 Build 0)  -->
<svg version="1.1" id="Layer_1" xmlns="http://www.w3.org/2000/svg" xmlns:xlink="http://www.w3.org/1999/xlink" x="0px" y="0px"
	 viewBox="654 -133.1 1920 133.1" style="enable-background:new 654 -133.1 1920 133.1;" xml:space="preserve">
<style type="text/css">
	.st0{fill:#5C6BC0;}
	.st1{fill:#3F51B5;}
</style>
<path id="XMLID_2_" class="st0" d="M654.1-32.3c0,0,169.2,9.4,283.7-16.1c91.8-20.5,281.7-47.2,404.8-20
	c260.9,57.5,359.5,9.3,504.9-16.5c167.2-29.7,307.8-35.7,446.4,17.7c127.5,49.1,280,35.3,280,35.3h28l-54.1,51.5l-1873.7,13
	L629.4-1.7L654.1-32.3z"/>
<path id="XMLID_1_" class="st1" d="M654.1-5.3c0,0,169.2,9.4,283.7-16.1c91.8-20.5,281.7-47.2,404.8-20
	c260.9,57.5,359.5,9.3,504.9-16.5c167.2-29.7,307.8-35.7,446.4,17.7c127.5,49.1,280,35.3,280,35.3h28l-54.1,51.5l-1873.7,13
	l-44.7-34.3L654.1-5.3z"/>
</svg>
